<?xml version="1.0" encoding="utf-8"?>
<!-- Generator: Adobe Illustrator 16.0.0, SVG Export Plug-In . SVG Version: 6.00 Build 0)  -->
<!DOCTYPE svg PUBLIC "-//W3C//DTD SVG 1.1//EN" "http://www.w3.org/Graphics/SVG/1.1/DTD/svg11.dtd">
<svg version="1.1" id="Capa_1" xmlns="http://www.w3.org/2000/svg" xmlns:xlink="http://www.w3.org/1999/xlink" x="0px" y="0px"
	 width="572.034px" height="500px" viewBox="0 0 572.034 500" enable-background="new 0 0 572.034 500" xml:space="preserve">
<g>
	<path fill="#0C0A0C" stroke="#201813" stroke-miterlimit="10" d="M252.606,133.143c-0.762-2.806-1.248-6.285,0-9.577
		c1.858-2.88,4.115-4.577,9.776-6.385c5.661-1.808,45.69-1.716,47.686-1.197s8.081,5.068,8.979,6.186s0.349,9.607,0,10.974
		c-0.349,1.367-15.712,11.649-16.161,12.57c-0.449,0.921-0.051,2.518,0.599,3.193c0.648,0.674,10.674-0.379,13.168,0.199
		c3.667,0.624,11.871,7.752,12.569,8.979c0.7,1.227,1.097,7.038,0.998,9.577c-0.1,2.54-4.341,6.241-5.986,7.184
		c-1.644,0.942-10.501,0.774-10.451,2.118c0.686,1.71,2.222,3.917,2.671,4.864c0.448,0.948,0.399,5.737-0.2,7.383
		c-0.598,1.646-2.544,4.488-10.973,6.384c-8.432,1.896-33.216,2.015-36.115,1.241c-2.9-0.773-9.508-4.14-10.195-5.83
		c-0.686-1.69,2.401-8.667,1.416-10.575c-1.359-1.59-14.203-8.829-14.963-10.176c-0.762-1.347-0.624-8.217,0-9.776
		c0.623-1.559,7.313-8.031,9.776-9.377c2.463-1.347,14.958-0.524,15.407-1.553c0.449-1.029,0.393-1.435-0.093-3.037
		C270.027,144.909,253.367,135.949,252.606,133.143z"/>
	<path fill="#352F2F" d="M332.017,152.896c-1.596,1.396,2.495,3.093,3.192,5.986c0.698,2.893-0.498,9.478-1.596,12.371
		c-1.098,2.894-4.59,7.382-7.583,7.981s-5.886-0.798-7.182,0c-1.297,0.798,1.098,6.485,0,10.376
		c-1.099,3.89-8.78,9.377-12.371,9.577c-2.992,0.997-32.823,1.696-38.31,0c-5.486-1.697-11.373-4.889-12.769-6.385
		c-1.396-3.691,3.491-8.38,1.995-11.173c-1.496-2.794-13.167-5.387-14.764-8.779c-1.596-3.393-0.399-5.686,0-10.774
		c0.398-5.088,3.35-6.783,2.273-9.179s-26.616,5.988-53.353,11.573c-68.636,24.739-72.228,33.124-76.617,44.294
		c-4.39,11.172,1.392,26.496,22.746,33.521c21.354,7.025,38.309,13.969,70.632,18.755c32.323,4.786,83.004,7.983,99.363,3.991
		c19.554,0.795,70.633-7.982,70.633-7.982s36.313-7.18,47.486-12.769c11.174-5.588,19.154-1.993,29.928-16.361
		c10.775-14.368,6.886-16.348,3.992-23.943c-1.611-4.229-9.101-9.316-16.594-13.684c-4.891-2.851-9.784-5.396-13.044-7.195
		c-0.713-0.394-1.348-0.752-1.888-1.069c-6.784-3.991-24.144-10.874-31.126-13.568C390.079,165.766,333.613,151.5,332.017,152.896z"
		/>
	<path fill="#201A1A" d="M448.14,188.013c1.348-2.644,41.451-0.948,51.477,0c5.386,0.509,6.734,0.608,8.105,0.897
		c1.184,0.25,2.461,0.564,5.463,2.295c6.484,3.741,12.871,8.879,13.568,13.567c0.698,4.689,1.547,17.459,0,21.549
		c-1.547,4.09-8.58,10.575-13.967,11.972s-52.477,9.478-55.867,6.784c-3.393-2.693-4.84-8.38-3.593-10.774
		c1.248-2.395,4.342-3.891,6.387-4.789s7.878-0.77,11.172-1.197c3.296-0.428,41.004-1.311,43.099-6.417
		c-1.496-16.329-9.977-16.728-9.977-16.728s-32.822,2.145-37.909,0C461.01,203.026,446.793,190.657,448.14,188.013z"/>
	<path fill="#141011" d="M128.501,186.615c-7.382-1.596-44.094-0.399-52.475,0c-8.38,0.4-26.438,17.054-27.935,24.836
		c-1.672,6.214-0.797,11.888,0.799,14.072c1.596,2.184,10.763,9.693,15.563,10.774c5.187,3.276,43.896,5.303,48.285,4.19
		c4.39-1.113,4.09-13.168-0.399-14.681c-4.489-1.513-43.794-0.867-45.89-3.476c-2.096-2.609-0.797-4.175,0-6.585
		c0.797-2.409,8.58-9.661,11.572-10.774s31.426,0.215,34.518-0.599c1.515-0.399,5.841-5.595,10.327-9.645
		C127.536,190.513,132.266,187.429,128.501,186.615z"/>
	<path fill="#141011" d="M118.525,235.496c-3.051,1.477-4.65,8.802-2.394,10.126c2.256,1.325,3.916,0.427,5.188,3.045
		c1.272,2.619,6.385,34.715,6.385,34.715s2.793,25.137,9.577,42.301c26.337,37.911,51.079,39.903,66.641,48.684
		c15.563,8.779,79.412,8.777,100.162,9.975c65.045-3.99,49.483-5.189,75.421-13.967c25.937-8.776,40.303-13.966,53.472-31.923
		c12.372-9.977,20.351-66.642,20.351-66.642s1.996-15.563,1.996-19.554c0-3.99-1.497-1.494-3.592-3.589
		c-2.094-2.095,1.396-7.666-1.994-7.873c-1.64-0.101-18.801,5.946-36.659,11.465c-19.09,5.9-38.978,11.286-41.556,10.771
		c-4.786,2.397-63.086,8.377-83.318,9.976c-20.234,1.6-58.744-2.996-72.31-4.39c-13.567-1.393-50.68-13.371-53.872-13.566
		c-1.664-0.104-12.591-3.142-23.101-8.377C129.276,241.869,119.985,234.79,118.525,235.496z"/>
</g>
</svg>
